<svg width="50" height="50" viewBox="0 0 50 50" fill="none" xmlns="http://www.w3.org/2000/svg">
<g id="credit-card-black-outline-18372 2">
<g id="Group">
<path id="Vector" d="M46.896 8.57849H3.04734C1.51885 8.57849 0.274658 9.82214 0.274658 11.3512V15.4965V22.3733V38.5923C0.274658 40.1213 1.51885 41.3655 3.04734 41.3655H46.896C48.425 41.3655 49.6692 40.1213 49.6692 38.5923V22.3733V15.4965V11.3512C49.6692 9.82214 48.425 8.57849 46.896 8.57849ZM3.04734 9.67615H46.896C47.8202 9.67615 48.5715 10.4275 48.5715 11.3512V14.9476H1.37231V11.3512C1.37231 10.4275 2.12366 9.67615 3.04734 9.67615ZM48.5715 21.8245H1.37231V16.0453H48.5715V21.8245ZM46.896 40.2678H3.04734C2.12366 40.2678 1.37231 39.5165 1.37231 38.5923V22.9221H48.5715V38.5923C48.5715 39.5165 47.8202 40.2678 46.896 40.2678Z" fill="black"/>
<path id="Vector_2" d="M43.8164 27.0219H31.4568C31.1533 27.0219 30.908 27.2672 30.908 27.5707V34.447C30.908 34.7505 31.1533 34.9958 31.4568 34.9958H43.8164C44.1199 34.9958 44.3652 34.7505 44.3652 34.447V27.5707C44.3652 27.2677 44.1199 27.0219 43.8164 27.0219ZM43.2676 33.8987H32.0056V28.1195H43.2676V33.8987Z" fill="black"/>
<path id="Vector_3" d="M18.4871 27.0219H6.12744C5.82449 27.0219 5.57861 27.2672 5.57861 27.5707C5.57861 27.8742 5.82449 28.1195 6.12744 28.1195H18.4871C18.79 28.1195 19.0359 27.8742 19.0359 27.5707C19.0359 27.2672 18.79 27.0219 18.4871 27.0219Z" fill="black"/>
<path id="Vector_4" d="M10.8035 31.1545H6.12744C5.82449 31.1545 5.57861 31.3999 5.57861 31.7034C5.57861 32.0069 5.82449 32.2522 6.12744 32.2522H10.8035C11.1064 32.2522 11.3523 32.0069 11.3523 31.7034C11.3523 31.3999 11.1064 31.1545 10.8035 31.1545Z" fill="black"/>
</g>
</g>
</svg>
