<svg width="42" height="40" viewBox="0 0 42 40" fill="none" xmlns="http://www.w3.org/2000/svg">
<g clip-path="url(#clip0_9_211)">
<path d="M20.8655 15.7635C21.7123 15.7635 22.4038 16.4205 22.4038 17.2269C22.4038 17.9628 23.0318 18.5592 23.8045 18.5592C24.5754 18.5592 25.2034 17.9628 25.2034 17.2269C25.2034 15.4191 23.9668 13.8936 22.2644 13.3358V12.5797C22.2644 11.8455 21.6382 11.2457 20.8655 11.2457C20.091 11.2457 19.4648 11.8455 19.4648 12.5797V13.3358C17.7624 13.8936 16.5293 15.4191 16.5293 17.2269C16.5293 19.5068 18.4733 21.3583 20.8655 21.3583C21.7123 21.3583 22.4038 22.0169 22.4038 22.8234C22.4038 23.6315 21.7123 24.2884 20.8655 24.2884C20.0187 24.2884 19.3289 23.6315 19.3289 22.8234C19.3289 22.0875 18.7009 21.4893 17.9282 21.4893C17.1538 21.4893 16.5293 22.0875 16.5293 22.8234C16.5293 24.6311 17.7624 26.155 19.4648 26.7128V27.4689C19.4648 28.2064 20.091 28.8045 20.8655 28.8045C21.6382 28.8045 22.2644 28.2064 22.2644 27.4689V26.7128C23.9668 26.155 25.2034 24.6311 25.2034 22.8234C25.2034 20.5451 23.2576 18.692 20.8655 18.692C20.0187 18.692 19.3289 18.035 19.3289 17.2269C19.3289 16.4205 20.0187 15.7635 20.8655 15.7635ZM32.5951 27.4285C33.2813 27.7729 34.1263 27.5226 34.4862 26.8741C35.6505 24.779 36.2644 22.41 36.2644 20.0243C36.2644 11.9396 29.3544 5.36031 20.8655 5.36031C12.3748 5.36031 5.46654 11.9396 5.46654 20.0243C5.46654 28.1107 12.3748 34.69 20.8655 34.69C23.3335 34.69 25.7856 34.1221 27.9572 33.0451C28.6435 32.7074 28.9098 31.8993 28.5535 31.2474C28.1971 30.5972 27.3521 30.3385 26.6641 30.6795C24.8665 31.5734 22.9136 32.0253 20.8655 32.0253C13.9184 32.0253 8.26442 26.6422 8.26442 20.0243C8.26442 13.4097 13.9184 8.02496 20.8655 8.02496C27.8126 8.02496 33.4665 13.4097 33.4665 20.0243C33.4665 21.9783 32.962 23.9154 32.0129 25.6258C31.6495 26.2777 31.9106 27.0841 32.5951 27.4285ZM20.8655 0.024292C16.8098 0.024292 12.8723 1.1298 9.47989 3.21818C8.82894 3.61804 8.6437 4.44298 9.06356 5.06125C9.48519 5.67953 10.3478 5.85426 11.0006 5.45776C13.936 3.64996 17.3514 2.6923 20.8655 2.6923C30.9015 2.6923 39.0641 10.4678 39.0641 20.0243C39.0641 29.5824 30.9015 37.358 20.8655 37.358C10.8294 37.358 2.66513 29.5824 2.66513 20.0243C2.66513 16.7094 3.65127 13.4853 5.51946 10.7047C5.93579 10.0831 5.74527 9.25816 5.09254 8.86166C4.44159 8.46515 3.57541 8.6466 3.16084 9.26656C1.0051 12.4772 -0.134521 16.2004 -0.134521 20.0243C-0.134521 31.0542 9.28408 40.0243 20.8655 40.0243C32.4451 40.0243 41.8655 31.0542 41.8655 20.0243C41.8655 8.99775 32.4451 0.024292 20.8655 0.024292Z" fill="black"/>
</g>
<defs>
<clipPath id="clip0_9_211">
<rect width="42" height="40" fill="white"/>
</clipPath>
</defs>
</svg>
